<?xml version="1.0" encoding="UTF-8" standalone="no"?>
<svg width="1375px" height="372px" viewBox="0 0 1375 372" version="1.1" xmlns="http://www.w3.org/2000/svg" xmlns:xlink="http://www.w3.org/1999/xlink" xmlns:sketch="http://www.bohemiancoding.com/sketch/ns">
    <!-- Generator: Sketch 3.3.2 (12043) - http://www.bohemiancoding.com/sketch -->
    <title>background-img-grey@3x</title>
    <desc>Created with Sketch.</desc>
    <defs></defs>
    <g id="slice" stroke="none" stroke-width="1" fill="none" fill-rule="evenodd" sketch:type="MSPage">
        <g id="Group" sketch:type="MSLayerGroup" transform="translate(13.000000, 12.000000)">
            <path d="M709.38981,94.9835647 L903.137189,41.4289217 L844.310003,230.449017 L709.38981,94.9835647 Z" id="Rectangle-72" fill="#F4F4F4" sketch:type="MSShapeGroup" transform="translate(806.263500, 135.938969) rotate(-45.000000) translate(-806.263500, -135.938969) "></path>
            <path d="M869.342417,133.28668 L958.688095,108.590212 L931.560219,195.755926 L869.342417,133.28668 Z" id="Rectangle-72" fill="#F4F4F4" sketch:type="MSShapeGroup" transform="translate(914.015256, 152.173069) rotate(-45.000000) translate(-914.015256, -152.173069) "></path>
            <path d="M627.203523,186.945051 C632.503887,186.945051 636.80068,182.64946 636.80068,177.350581 C636.80068,172.051701 632.503887,167.756111 627.203523,167.756111 L585.635865,167.756111 C580.335502,167.756111 576.038709,172.051701 576.038709,177.350581 C576.038709,182.64946 580.335502,186.945051 585.635865,186.945051 L627.203523,186.945051 Z" id="Shape" fill="#F4F4F4" sketch:type="MSShapeGroup"></path>
            <path d="M937.934813,183.746894 C943.235176,183.746894 947.53197,179.451303 947.53197,174.152424 C947.53197,168.853544 943.235176,164.557954 937.934813,164.557954 L687.752922,164.557954 C682.452559,164.557954 678.155765,168.853544 678.155765,174.152424 C678.155765,179.451303 682.452559,183.746894 687.752922,183.746894 L937.934813,183.746894 Z" id="Shape" fill="#F4F4F4" sketch:type="MSShapeGroup"></path>
            <path d="M986.039829,183.746894 C991.340192,183.746894 995.636985,179.451303 995.636985,174.152424 C995.636985,168.853544 991.340192,164.557954 986.039829,164.557954 L900.489889,164.557954 C895.189525,164.557954 890.892732,168.853544 890.892732,174.152424 C890.892732,179.451303 895.189525,183.746894 900.489889,183.746894 L986.039829,183.746894 Z" id="Shape" fill="#E7E7E7" sketch:type="MSShapeGroup"></path>
            <path d="M523.234329,186.945051 C528.534692,186.945051 532.831486,182.64946 532.831486,177.350581 C532.831486,172.051701 528.534692,167.756111 523.234329,167.756111 L408.956265,167.756111 C403.655901,167.756111 399.359108,172.051701 399.359108,177.350581 C399.359108,182.64946 403.655901,186.945051 408.956265,186.945051 L523.234329,186.945051 Z" id="Shape" fill="#F4F4F4" sketch:type="MSShapeGroup"></path>
            <path d="M419.468047,188.544129 C424.76841,188.544129 429.065204,184.248538 429.065204,178.949659 C429.065204,173.650779 424.76841,169.355189 419.468047,169.355189 L118.693785,169.355189 C113.393422,169.355189 109.096629,173.650779 109.096629,178.949659 C109.096629,184.248538 113.393422,188.544129 118.693785,188.544129 L419.468047,188.544129 Z" id="Shape" fill="#F4F4F4" sketch:type="MSShapeGroup"></path>
            <path d="M1014.89929,226.837527 L1097.53417,214.129382 L1086.8632,299.092272 L1014.89929,226.837527 Z" id="Rectangle-72" fill="#E6E6E6" sketch:type="MSShapeGroup" transform="translate(1056.216728, 256.610827) rotate(-45.000000) translate(-1056.216728, -256.610827) "></path>
            <path d="M1159.48438,266.784141 C1164.78474,266.784141 1169.08153,262.48855 1169.08153,257.189671 C1169.08153,251.890791 1164.78474,247.595201 1159.48438,247.595201 L931.125783,247.595201 C925.825419,247.595201 921.528626,251.890791 921.528626,257.189671 C921.528626,262.48855 925.825419,266.784141 931.125783,266.784141 L1159.48438,266.784141 Z" id="Shape" fill="#F4F4F4" sketch:type="MSShapeGroup"></path>
            <path d="M1340.15817,185.345972 C1345.45853,185.345972 1349.75532,181.050382 1349.75532,175.751502 C1349.75532,170.452623 1345.45853,166.157032 1340.15817,166.157032 L1089.48658,166.157032 C1084.18621,166.157032 1079.88942,170.452623 1079.88942,175.751502 C1079.88942,181.050382 1084.18621,185.345972 1089.48658,185.345972 L1340.15817,185.345972 Z" id="Shape" fill="#F4F4F4" sketch:type="MSShapeGroup"></path>
            <path d="M544.279455,268.498046 C549.579818,268.498046 553.876611,264.202456 553.876611,258.903576 C553.876611,253.604697 549.579818,249.309106 544.279455,249.309106 L310.74331,249.309106 C305.442947,249.309106 301.146153,253.604697 301.146153,258.903576 C301.146153,264.202456 305.442947,268.498046 310.74331,268.498046 L544.279455,268.498046 Z" id="Shape" fill="#F4F4F4" sketch:type="MSShapeGroup"></path>
            <path d="M870.351505,347 C875.651868,347 879.948662,342.704409 879.948662,337.40553 C879.948662,332.10665 875.651868,327.81106 870.351505,327.81106 L636.81536,327.81106 C631.514997,327.81106 627.218204,332.10665 627.218204,337.40553 C627.218204,342.704409 631.514997,347 636.81536,347 L870.351505,347 Z" id="Shape" fill="#F4F4F4" sketch:type="MSShapeGroup"></path>
            <path d="M520.274353,346.852885 C525.574716,346.852885 529.87151,342.557294 529.87151,337.258415 C529.87151,331.959535 525.574716,327.663945 520.274353,327.663945 L158.86914,327.663945 C153.568777,327.663945 149.271984,331.959535 149.271984,337.258415 C149.271984,342.557294 153.568777,346.852885 158.86914,346.852885 L520.274353,346.852885 Z" id="Shape" fill="#F4F4F4" sketch:type="MSShapeGroup"></path>
            <path d="M897.334123,114.986525 C902.634486,114.986525 906.93128,110.690935 906.93128,105.392055 C906.93128,100.093176 902.634486,95.7975853 897.334123,95.7975853 L889.545818,95.7975853 C884.245455,95.7975853 879.948662,100.093176 879.948662,105.392055 C879.948662,110.690935 884.245455,114.986525 889.545818,114.986525 L897.334123,114.986525 Z" id="Shape" fill="#F4F4F4" sketch:type="MSShapeGroup"></path>
            <path d="M729.196674,114.986525 C734.497037,114.986525 738.79383,110.690935 738.79383,105.392055 C738.79383,100.093176 734.497037,95.7975853 729.196674,95.7975853 L529.487387,95.7975853 C524.187024,95.7975853 519.890231,100.093176 519.890231,105.392055 C519.890231,110.690935 524.187024,114.986525 529.487387,114.986525 L729.196674,114.986525 Z" id="Shape" fill="#E6E6E6" sketch:type="MSShapeGroup"></path>
            <path d="M1038.91915,114.986525 C1044.21951,114.986525 1048.51631,110.690935 1048.51631,105.392055 C1048.51631,100.093176 1044.21951,95.7975853 1038.91915,95.7975853 L942.733399,95.7975853 C937.433036,95.7975853 933.136243,100.093176 933.136243,105.392055 C933.136243,110.690935 937.433036,114.986525 942.733399,114.986525 L1038.91915,114.986525 Z" id="Shape" fill="#F4F4F4" sketch:type="MSShapeGroup"></path>
            <path d="M33.7793529,188.544129 C39.079716,188.544129 43.3765093,184.248538 43.3765093,178.949659 C43.3765093,173.650779 39.079716,169.355189 33.7793529,169.355189 L10.3541783,169.355189 C5.05381518,169.355189 0.757021905,173.650779 0.757021905,178.949659 C0.757021905,184.248538 5.05381518,188.544129 10.3541783,188.544129 L33.7793529,188.544129 Z" id="Shape" fill="#F4F4F4" sketch:type="MSShapeGroup"></path>
            <path d="M362.172865,111.788369 C367.473228,111.788369 371.770022,107.492778 371.770022,102.193899 C371.770022,96.8950191 367.473228,92.5994286 362.172865,92.5994286 L273.444019,92.5994286 C268.143656,92.5994286 263.846863,96.8950191 263.846863,102.193899 C263.846863,107.492778 268.143656,111.788369 273.444019,111.788369 L362.172865,111.788369 Z" id="Shape" fill="#F4F4F4" sketch:type="MSShapeGroup"></path>
            <path d="M815.147096,266.205297 C820.44746,266.205297 824.744253,261.909707 824.744253,256.610827 C824.744253,251.311948 820.44746,247.016357 815.147096,247.016357 L729.597156,247.016357 C724.296793,247.016357 720,251.311948 720,256.610827 C720,261.909707 724.296793,266.205297 729.597156,266.205297 L815.147096,266.205297 Z" id="Path" fill="#E6E6E6" sketch:type="MSShapeGroup"></path>
            <path d="M338.147096,268.498046 C343.44746,268.498046 347.744253,264.202456 347.744253,258.903576 C347.744253,253.604697 343.44746,249.309106 338.147096,249.309106 L252.597156,249.309106 C247.296793,249.309106 243,253.604697 243,258.903576 C243,264.202456 247.296793,268.498046 252.597156,268.498046 L338.147096,268.498046 Z" id="Path" fill="#E6E6E6" sketch:type="MSShapeGroup"></path>
            <path d="M900.240238,347 C905.540601,347 909.837394,342.704409 909.837394,337.40553 C909.837394,332.10665 905.540601,327.81106 900.240238,327.81106 L795.745636,327.81106 C790.445273,327.81106 786.148479,332.10665 786.148479,337.40553 C786.148479,342.704409 790.445273,347 795.745636,347 L900.240238,347 Z" id="Path" fill="#E6E6E6" sketch:type="MSShapeGroup"></path>
        </g>
    </g>
</svg>